<?xml version="1.0" standalone="no"?>
<!DOCTYPE svg PUBLIC "-//W3C//DTD SVG 20010904//EN"
 "http://www.w3.org/TR/2001/REC-SVG-20010904/DTD/svg10.dtd">
<svg version="1.0" xmlns="http://www.w3.org/2000/svg"
 width="96.000000pt" height="96.000000pt" viewBox="0 0 96.000000 96.000000"
 preserveAspectRatio="xMidYMid meet">
<metadata>
Created by potrace 1.14, written by Peter Selinger 2001-2017
</metadata>
<g transform="translate(0.000000,96.000000) scale(0.100000,-0.100000)"
fill="#000000" stroke="none">
<path d="M78 953 l-78 -4 0 -474 0 -475 186 0 186 0 -6 38 c-4 20 -2 44 3 52
9 12 14 11 34 -8 27 -26 37 -28 37 -7 0 13 19 20 44 16 5 -1 3 5 -4 14 -10 11
-10 22 -3 38 10 22 8 24 -31 35 -32 9 -47 20 -68 54 -36 59 -60 118 -46 118
14 0 58 -42 58 -56 0 -6 10 -19 23 -30 12 -10 16 -12 10 -4 -17 18 -17 33 0
24 8 -5 8 -2 -2 9 -12 15 -11 17 5 17 13 0 9 6 -13 16 -36 18 -41 29 -19 37 8
3 22 -3 32 -14 9 -10 22 -19 28 -19 6 0 -3 13 -20 30 -29 26 -35 28 -62 18
-42 -16 -62 2 -62 56 0 50 15 79 29 57 5 -8 25 -15 44 -15 19 -1 33 -4 30 -8
-2 -5 1 -8 7 -8 6 0 8 -5 5 -11 -4 -6 2 -5 14 3 12 7 21 23 21 36 0 26 -32 42
-87 42 l-35 0 7 53 c8 56 30 92 70 113 21 11 29 10 60 -12 20 -13 53 -33 74
-43 32 -17 91 -86 91 -108 0 -4 12 -24 26 -45 l27 -38 -18 -62 c-9 -35 -28
-82 -41 -105 l-25 -43 21 -42 c19 -39 19 -46 6 -93 -8 -27 -17 -62 -20 -77
l-6 -28 100 0 c55 0 100 3 100 6 0 4 -9 21 -20 40 -13 20 -17 35 -10 39 5 3
10 25 10 48 0 38 -5 47 -55 93 -51 47 -55 54 -49 85 4 19 15 54 25 79 15 38
18 41 18 18 1 -15 6 -30 12 -33 6 -4 8 -22 4 -44 -5 -33 -2 -41 28 -72 l34
-35 11 30 c10 27 9 35 -14 67 -14 21 -28 56 -31 78 -3 24 -15 49 -29 62 -13
12 -24 18 -24 13 0 -5 -21 23 -47 61 -26 39 -56 77 -67 87 -47 37 -106 97
-106 107 0 5 7 14 16 19 15 8 15 10 0 15 -26 10 -19 35 12 40 26 4 26 4 4 12
-16 5 -20 11 -12 20 7 9 6 20 -4 39 -9 17 -16 23 -21 16 -5 -8 -11 -5 -20 7
-9 12 -10 20 -3 24 6 4 1 12 -12 19 -21 11 -22 10 -18 -13 4 -21 0 -26 -24
-31 -19 -4 -28 -12 -28 -25 0 -11 -8 -25 -17 -31 -16 -10 -16 -11 3 -7 19 4
20 1 14 -32 -3 -20 -14 -49 -23 -66 -9 -16 -22 -41 -29 -55 -7 -14 -20 -32
-28 -41 -8 -9 -20 -24 -27 -35 -11 -18 -12 -18 -12 2 -1 11 13 49 30 83 17 34
29 64 27 66 -4 4 -81 -105 -105 -148 -15 -28 -24 -129 -13 -142 5 -6 6 -16 2
-22 -8 -13 -82 -34 -94 -27 -15 9 -8 32 15 51 19 15 22 28 22 83 0 53 -3 66
-17 72 -10 4 -18 15 -18 24 0 10 -8 26 -17 37 -17 18 -17 20 16 47 24 21 32
34 28 49 -3 12 -2 23 3 26 4 2 8 38 9 80 1 41 0 74 -1 73 -2 -1 -38 -4 -80 -5z
m22 -395 c0 -16 -3 -19 -11 -11 -6 6 -8 16 -5 22 11 17 16 13 16 -11z m293
-45 c-7 -2 -21 -2 -30 0 -10 3 -4 5 12 5 17 0 24 -2 18 -5z m-149 -156 l-5
-32 14 30 c15 33 26 19 21 -28 -3 -29 -23 -62 -32 -52 -3 2 1 11 8 20 7 8 8
15 2 15 -5 0 -15 -7 -22 -15 -7 -8 -26 -15 -41 -15 -29 0 -29 0 -13 25 9 14
13 32 9 44 -5 16 -1 22 19 27 14 3 26 10 26 16 0 5 4 6 10 3 5 -3 7 -20 4 -38z
m-166 5 c2 -6 -5 -8 -17 -5 -12 3 -21 9 -21 13 0 12 33 5 38 -8z m75 -22 c-15
-17 -43 -28 -43 -16 0 2 -2 10 -5 18 -4 9 5 14 30 15 34 3 34 2 18 -17z m-50
-55 c-9 -15 -11 -15 -23 0 -12 14 -12 18 1 25 19 12 33 -4 22 -25z m34 -22
c-3 -10 -5 -2 -5 17 0 19 2 27 5 18 2 -10 2 -26 0 -35z m23 -52 c0 -19 -18
-31 -55 -38 -16 -2 -17 -1 -5 7 12 8 13 11 1 19 -9 6 -10 11 -2 15 6 4 11 1
11 -6 0 -8 6 -7 17 5 22 22 33 22 33 -2z"/>
<path d="M588 952 c-54 -1 -98 -6 -98 -10 0 -4 17 -7 38 -7 53 0 184 -60 211
-95 11 -16 31 -66 42 -112 26 -99 37 -121 84 -173 20 -22 34 -34 30 -27 -3 6
-1 12 4 12 6 0 11 -4 11 -10 0 -5 11 -10 25 -10 l25 0 0 214 0 215 -137 3
c-76 2 -182 2 -235 0z"/>
<path d="M200 774 c-53 -30 -55 -32 -47 -40 3 -4 19 4 35 17 16 13 38 29 48
36 35 22 9 13 -36 -13z"/>
<path d="M755 528 c4 -49 14 -78 26 -78 15 0 10 42 -11 80 l-18 35 3 -37z"/>
<path d="M553 512 c-23 -3 -39 -34 -28 -52 10 -15 23 -12 28 8 4 16 5 16 6 -1
1 -14 5 -16 20 -7 11 5 27 7 37 3 23 -9 14 17 -12 31 -10 6 -21 13 -24 16 -3
3 -15 4 -27 2z"/>
<path d="M925 430 c-4 -6 -11 -8 -16 -4 -15 9 -6 -20 11 -33 13 -10 13 -13 -2
-30 -20 -22 -16 -115 8 -150 8 -13 10 -23 5 -23 -5 0 -13 5 -16 10 -4 6 -11 8
-16 4 -19 -11 -80 -149 -77 -174 3 -24 7 -25 71 -28 l67 -3 0 116 c0 96 -3
115 -15 115 -16 0 -21 16 -6 22 4 2 12 13 15 26 6 17 3 22 -10 22 -13 0 -14 3
-5 13 6 8 8 17 4 20 -3 4 -1 7 5 7 17 0 15 46 -3 64 -18 17 -20 30 -3 20 7 -4
8 -3 4 4 -9 15 -13 15 -21 2z"/>
<path d="M560 351 c0 -6 4 -12 10 -16 5 -3 6 -13 3 -23 -5 -16 -5 -16 12 0 15
14 16 20 5 32 -14 18 -30 21 -30 7z"/>
<path d="M830 241 c0 -11 5 -23 10 -26 6 -3 10 3 10 14 0 11 -4 23 -10 26 -5
3 -10 -3 -10 -14z"/>
</g>
</svg>
